# xmcd
#
# Track frame offsets:
#	150
#	16648
#	32260
#	57445
#	73123
#	96025
#	119543
#	141038
#	170235
#	190388
#	212648
#	231575
#	250308
#	265915
#	283723
#	306458
#
# Disc length: 4393 seconds
#
# Revision: 1
# Processed by: cddbd v1.5.2PL0 Copyright (c) Steve Scherf et al.
# Submitted via: audiograbber 1.82.01
#
DISCID=f2112710
DTITLE=Various Artist - The Best Of Lyrics 1
DYEAR=1900
DGENRE=Ballad
TTITLE0=Smokie - What Can I Do
TTITLE1=Michael Cretu - Your Favorite Toy
TTITLE2=Boney M - Never Change Lovers In The Middle Of The Night
TTITLE3=Kansas - Dust In The Wind
TTITLE4=George Michael - Careless Whisper
TTITLE5=Spandau Ballet - I'll Fly For You
TTITLE6=Whitesnake - Is This Love
TTITLE7=Scorpions - Still Loving You
TTITLE8=Zucchero and Paul Young - Senza Una Donna (Without A Woman)
TTITLE9=Alan Parsons Project - Old And Wise
TTITLE10=The Cars - I'm Not The One
TTITLE11=E.L.O. - Ticket To The Moon
TTITLE12=Charles Aznavour - La Yiddishe Mamma
TTITLE13=Vaya Con Dios - What's A Woman
TTITLE14=Philip Lynott - Growing Up
TTITLE15=Chicago - Hard To Say I'm Sorry
EXTD=
EXTT0=
EXTT1=
EXTT2=
EXTT3=
EXTT4=
EXTT5=
EXTT6=
EXTT7=
EXTT8=
EXTT9=
EXTT10=
EXTT11=
EXTT12=
EXTT13=
EXTT14=
EXTT15=
PLAYORDER=
